<svg width="549" height="196" viewBox="0 0 549 196" fill="none" xmlns="http://www.w3.org/2000/svg">
<g filter="url(#filter0_ddddd_9102_168)">
<rect x="23" y="4" width="502.56" height="112" rx="56" fill="#202024"/>
<path fill-rule="evenodd" clip-rule="evenodd" d="M112.227 38.5632L98.84 81.4992H106.774L120.157 38.5632H112.227ZM93.8288 58.44V50.208L71.0528 58.6512H71V67.1136H71.0528L93.8288 75.5712V67.3248L82.1504 62.8704L93.8288 58.44ZM122.005 67.3392V75.5712V75.5904L144.747 67.1664H144.8V58.704H144.747L122.005 50.2416V58.4736L133.669 62.9088L122.005 67.3392ZM186.435 65.2224V40.0032H195.335V65.2224C195.335 73.7328 188.413 80.664 179.903 80.664H172.918C164.408 80.6592 157.486 73.7328 157.486 65.2224H166.386C166.386 68.832 169.319 71.7648 172.928 71.7648H179.893C183.498 71.7648 186.435 68.832 186.435 65.2224ZM214.746 80.664C206.23 80.664 199.304 73.7376 199.304 65.2224V55.4448C199.304 46.9296 206.23 40.0032 214.746 40.0032H228.915C237.43 40.0032 244.357 46.9296 244.357 55.4448V65.2224C244.357 73.7376 237.43 80.664 228.915 80.664H214.746ZM214.746 48.9024C211.136 48.9024 208.203 51.8352 208.203 55.4448V65.2224C208.203 68.832 211.136 71.7648 214.746 71.7648H228.915C232.525 71.7648 235.458 68.832 235.458 65.2224V55.4448C235.458 51.8352 232.52 48.9024 228.915 48.9024H214.746ZM263.744 80.664C255.229 80.664 248.303 73.7376 248.303 65.2224V40.0032H257.202V65.2224C257.202 68.832 260.139 71.7648 263.744 71.7648H277.218C280.827 71.7648 283.76 68.832 283.76 65.2224V40.0032H292.659V65.2224C292.659 73.7376 285.733 80.664 277.218 80.664H263.744ZM320.792 63.9648L328.578 80.664V80.6592H338.403L330.752 64.248C330.666 64.0608 330.699 63.9792 330.714 63.9456C330.805 63.7344 331.175 63.528 331.501 63.3504L331.586 63.3027C331.665 63.2584 331.739 63.2167 331.803 63.1776C334.28 61.776 336.219 59.52 337.256 56.8224C338.783 52.8672 338.187 48.4704 335.677 45.0576C333.344 41.8944 329.619 40.0032 325.707 40.0032H305.072C300.426 40.0032 296.648 43.7808 296.648 48.4272V80.6544H305.547V49.4352C305.547 49.1424 305.783 48.9024 306.071 48.8976H325.707C327.075 48.8976 328.285 49.6752 328.866 50.9232C329.379 52.032 329.293 53.2896 328.616 54.312C328.506 54.4704 328.386 54.624 328.251 54.768L328.213 54.8016L328.184 54.8448C327.999 55.03 327.608 55.2777 327.357 55.4371L327.33 55.4544L327.243 55.5072C326.663 55.8768 326.072 56.2272 325.477 56.5728C324.963 56.8704 324.45 57.1632 323.931 57.456C323.49 57.7056 323.048 57.9552 322.607 58.2096C320.586 59.376 319.808 61.8528 320.792 63.9648ZM342.714 80.664L342.704 74.8704V48.4944C342.704 43.8144 346.51 40.008 351.191 40.008H353.327C356.053 40.0992 358.669 41.2752 360.527 43.2336C361.131 43.872 361.655 44.5872 362.077 45.3552C362.187 45.552 362.288 45.7536 362.384 45.96L374.039 70.944C374.264 71.4336 374.739 71.7456 375.277 71.76H376.141C376.477 71.76 376.746 71.4864 376.746 71.1552V66.504L376.736 65.7216V40.008H385.635L385.645 45.7968V72.1728C385.645 76.8528 381.839 80.6592 377.159 80.6592H375.023C372.296 80.568 369.685 79.392 367.823 77.4336C367.213 76.7904 366.69 76.0752 366.272 75.3072C366.167 75.1104 366.061 74.9088 365.97 74.7072L354.315 49.7184C354.09 49.2288 353.615 48.9168 353.077 48.9024H352.213C351.877 48.9024 351.608 49.176 351.608 49.5072V54.1584L351.618 54.9408V80.6592H342.719L342.714 80.664ZM389.615 65.2224C389.615 73.7376 396.541 80.664 405.056 80.664H430.251V71.7648H405.056C401.447 71.7648 398.514 68.832 398.514 65.2224V55.4448C398.514 51.8352 401.447 48.9024 405.056 48.9024H430.251V40.0032H405.056C396.541 40.0032 389.615 46.9296 389.615 55.4448V65.2224ZM405.229 55.8816V64.7808H430.247V55.8816H405.229ZM451.213 80.664V64.1808C448.885 63.528 446.72 62.3424 444.925 60.744C443.274 59.2752 441.954 57.4944 441.003 55.4496L433.803 40.008H443.629L449.077 51.6864C450.301 54.3168 452.768 55.8864 455.667 55.8864C458.567 55.8864 461.029 54.3168 462.258 51.6864L467.706 40.008H477.531L470.331 55.4496C469.376 57.4944 468.056 59.2752 466.41 60.744C464.615 62.3472 462.445 63.528 460.117 64.1808V80.664H451.213Z" fill="url(#paint0_linear_9102_168)"/>
</g>
<defs>
<filter id="filter0_ddddd_9102_168" x="0" y="0" width="548.56" height="196" filterUnits="userSpaceOnUse" color-interpolation-filters="sRGB">
<feFlood flood-opacity="0" result="BackgroundImageFix"/>
<feColorMatrix in="SourceAlpha" type="matrix" values="0 0 0 0 0 0 0 0 0 0 0 0 0 0 0 0 0 0 127 0" result="hardAlpha"/>
<feOffset/>
<feColorMatrix type="matrix" values="0 0 0 0 0 0 0 0 0 0 0 0 0 0 0 0 0 0 0.15 0"/>
<feBlend mode="normal" in2="BackgroundImageFix" result="effect1_dropShadow_9102_168"/>
<feColorMatrix in="SourceAlpha" type="matrix" values="0 0 0 0 0 0 0 0 0 0 0 0 0 0 0 0 0 0 127 0" result="hardAlpha"/>
<feOffset dy="4"/>
<feGaussianBlur stdDeviation="4"/>
<feColorMatrix type="matrix" values="0 0 0 0 0 0 0 0 0 0 0 0 0 0 0 0 0 0 0.15 0"/>
<feBlend mode="normal" in2="effect1_dropShadow_9102_168" result="effect2_dropShadow_9102_168"/>
<feColorMatrix in="SourceAlpha" type="matrix" values="0 0 0 0 0 0 0 0 0 0 0 0 0 0 0 0 0 0 127 0" result="hardAlpha"/>
<feOffset dy="14"/>
<feGaussianBlur stdDeviation="7"/>
<feColorMatrix type="matrix" values="0 0 0 0 0 0 0 0 0 0 0 0 0 0 0 0 0 0 0.13 0"/>
<feBlend mode="normal" in2="effect2_dropShadow_9102_168" result="effect3_dropShadow_9102_168"/>
<feColorMatrix in="SourceAlpha" type="matrix" values="0 0 0 0 0 0 0 0 0 0 0 0 0 0 0 0 0 0 127 0" result="hardAlpha"/>
<feOffset dy="32"/>
<feGaussianBlur stdDeviation="9.5"/>
<feColorMatrix type="matrix" values="0 0 0 0 0 0 0 0 0 0 0 0 0 0 0 0 0 0 0.08 0"/>
<feBlend mode="normal" in2="effect3_dropShadow_9102_168" result="effect4_dropShadow_9102_168"/>
<feColorMatrix in="SourceAlpha" type="matrix" values="0 0 0 0 0 0 0 0 0 0 0 0 0 0 0 0 0 0 127 0" result="hardAlpha"/>
<feOffset dy="57"/>
<feGaussianBlur stdDeviation="11.5"/>
<feColorMatrix type="matrix" values="0 0 0 0 0 0 0 0 0 0 0 0 0 0 0 0 0 0 0.02 0"/>
<feBlend mode="normal" in2="effect4_dropShadow_9102_168" result="effect5_dropShadow_9102_168"/>
<feBlend mode="normal" in="SourceGraphic" in2="effect5_dropShadow_9102_168" result="shape"/>
</filter>
<linearGradient id="paint0_linear_9102_168" x1="487.738" y1="73.7697" x2="82.8894" y2="73.7697" gradientUnits="userSpaceOnUse">
<stop stop-color="#B2F7FC"/>
<stop offset="1" stop-color="#FAFABC"/>
</linearGradient>
</defs>
</svg>
